# xmcd
#
# Track frame offsets:
#	150
#	15299
#	48661
#	62349
#	82688
#	111027
#	136224
#	151720
#	164483
#	179664
#	201831
#	222553
#
# Disc length: 3259 seconds
#
# Revision: 1
# Processed by: cddbd v1.5.2PL0 Copyright (c) Steve Scherf et al.
# Submitted via: audiograbber 1.83.01
#
DISCID=980cb90c
DTITLE=Blurt - The Factory Recordings
DYEAR=1980
DGENRE=Punk
TTITLE0=Puppeteer
TTITLE1=Dyslexia
TTITLE2=Some Come
TTITLE3=Benighted
TTITLE4=Cherry Blossom Polish
TTITLE5=My Mother Was a Freidn of an Enemy of the People
TTITLE6=Puppeteers of the World Unite
TTITLE7=Dyslexia Rules
TTITLE8=Get
TTITLE9=Tube Plane
TTITLE10=Paranoid Blues
TTITLE11=Ubu
EXTD=
EXTT0=
EXTT1=
EXTT2=
EXTT3=
EXTT4=
EXTT5=
EXTT6=
EXTT7=
EXTT8=
EXTT9=
EXTT10=
EXTT11=
PLAYORDER=
